HIERARCHY
ROOT root
{
	OFFSET 0.00 0.00 0.00
	CHANNELS 6 Xposition Yposition Zposition Zrotation Xrotation Yrotation
	JOINT lowerback
	{
		OFFSET 0 0 0
		CHANNELS 6 Xposition Yposition Zposition Zrotation Xrotation Yrotation
		JOINT upperback
		{
			OFFSET -0.214371 12.3768 -1.12219
			CHANNELS 6 Xposition Yposition Zposition Zrotation Xrotation Yrotation
			JOINT thorax
			{
				OFFSET -0.00137213 12.3873 0.296195
				CHANNELS 6 Xposition Yposition Zposition Zrotation Xrotation Yrotation
				JOINT lowerneck
				{
					OFFSET 0.0883157 12.5016 0.82912
					CHANNELS 6 Xposition Yposition Zposition Zrotation Xrotation Yrotation
					JOINT upperneck
					{
						OFFSET -1 10.1794 0.943522
						CHANNELS 6 Xposition Yposition Zposition Zrotation Xrotation Yrotation
						JOINT head
						{
							OFFSET 0.667525 10.2797 -1.57149
							CHANNELS 6 Xposition Yposition Zposition Zrotation Xrotation Yrotation
							End Site
							{
								OFFSET 0 10.47 0
							}
						}
					}
				}
				JOINT lclavicle
				{
					OFFSET 0.0883157 12.5016 0.82912
					CHANNELS 6 Xposition Yposition Zposition Zrotation Xrotation Yrotation
					JOINT lhumerus
					{
						OFFSET 20.61 4.45006 1.43784
						CHANNELS 6 Xposition Yposition Zposition Zrotation Xrotation Yrotation
						JOINT lradius
						{
							OFFSET 0 -30.3438 0
							CHANNELS 6 Xposition Yposition Zposition Zrotation Xrotation Yrotation
							JOINT lwrist
							{
								OFFSET 0 -18.964 0
								CHANNELS 6 Xposition Yposition Zposition Zrotation Xrotation Yrotation
								JOINT lhand
								{
									OFFSET 0 -9.48199 0
									CHANNELS 6 Xposition Yposition Zposition Zrotation Xrotation Yrotation
									JOINT lfingers
									{
										OFFSET 0 -3.17138 0
										CHANNELS 6 Xposition Yposition Zposition Zrotation Xrotation Yrotation
										End Site
										{
											OFFSET 0 -2.55685 0
										}
									}
								}
								JOINT lthumb
								{
									OFFSET 0 -9.48199 0
									CHANNELS 6 Xposition Yposition Zposition Zrotation Xrotation Yrotation
									End Site
									{
										OFFSET 0 -3.67114 0
									}
								}
							}
						}
					}
				}
				JOINT rclavicle
				{
					OFFSET 0.0883157 12.5016 0.82912
					CHANNELS 6 Xposition Yposition Zposition Zrotation Xrotation Yrotation
					JOINT rhumerus
					{
						OFFSET -20.61 4.45 1.44
						CHANNELS 6 Xposition Yposition Zposition Zrotation Xrotation Yrotation
						JOINT rradius
						{
							OFFSET 0 -29.5102 0
							CHANNELS 6 Xposition Yposition Zposition Zrotation Xrotation Yrotation
							JOINT rwrist
							{
								OFFSET 0 -19.2342 0
								CHANNELS 6 Xposition Yposition Zposition Zrotation Xrotation Yrotation
								JOINT rhand
								{
									OFFSET 0 -9.61712 0
									CHANNELS 6 Xposition Yposition Zposition Zrotation Xrotation Yrotation
									JOINT rfingers
									{
										OFFSET 0 -3.29215 0
										CHANNELS 6 Xposition Yposition Zposition Zrotation Xrotation Yrotation
										End Site
										{
											OFFSET 0 -2.557 0
										}
									}
								}
								JOINT rthumb
								{
									OFFSET 0 -9.61712 0
									CHANNELS 6 Xposition Yposition Zposition Zrotation Xrotation Yrotation
									End Site
									{
										OFFSET 0 -3.671 0
									}
								}
							}
						}
					}
				}
			}
		}
	}
	JOINT rfemur
	{
		OFFSET -8.46272 -9.62775 4.76248
		CHANNELS 6 Xposition Yposition Zposition Zrotation Xrotation Yrotation
		JOINT rtibia
		{
			OFFSET 1.00552e-005 -38.0331 0
			CHANNELS 6 Xposition Yposition Zposition Zrotation Xrotation Yrotation
			JOINT rfoot
			{
				OFFSET 1.14428e-005 -43.2815 0
				CHANNELS 6 Xposition Yposition Zposition Zrotation Xrotation Yrotation
				JOINT rtoes
				{
					OFFSET 0 -14.1868 -3.08763
					CHANNELS 6 Xposition Yposition Zposition Zrotation Xrotation Yrotation
					End Site
					{
						OFFSET 0 -7.27332 0
					}
				}
			}
		}
	}
	JOINT lfemur
	{
		OFFSET 9.10607 -9.62778 4.76249
		CHANNELS 6 Xposition Yposition Zposition Zrotation Xrotation Yrotation
		JOINT ltibia
		{
			OFFSET -1.01399e-005 -38.3535 0
			CHANNELS 6 Xposition Yposition Zposition Zrotation Xrotation Yrotation
			JOINT lfoot
			{
				OFFSET -1.12937e-005 -42.7176 0
				CHANNELS 6 Xposition Yposition Zposition Zrotation Xrotation Yrotation
				JOINT ltoes
				{
					OFFSET 0 -13.9965 -2.83857
					CHANNELS 6 Xposition Yposition Zposition Zrotation Xrotation Yrotation
					End Site
					{
						OFFSET 0 -7.16348 0
					}
				}
			}
		}
	}
}
MOTION
Frames: 10
Frame Time: 0.00833333
-0.214201	96.6227	70.3088	2.85676	0.859788	3.57041	0 0 0 -3.94051	3.15941	-2.12248	-0.214371 12.3768 -1.12219 1.42141	0.376647	-2.92721	-0.00137213 12.3873 0.296195 3.82521	-1.09609	-1.4596	0.0883157 12.5016 0.82912 -5.90126	-14.5008	-1.47336	-1 10.1794 0.943522 4.20001	14.68	-1.40502	0.667525 10.2797 -1.57149 2.11284	7.229	-0.662944	0.0883157 12.5016 0.82912 -15	0	-0	20.61 4.45006 1.43784 13.4678	-6.77472	178.533	0 -30.3438 0 -0	44.7236	-0	0 -18.964 0 1.36463e-014	-2.29842e-015	-109.121	0 -9.48199 0 1.22245	4.37968	-2.58917e-014	0 -3.17138 0 -0	7.12502	-0	0 -9.48199 0 25	15	-1.36605e-015	0.0883157 12.5016 0.82912 15	0	-0	-20.61 4.45 1.44 -9.36978	12.3781	156.122	0 -29.5102 0 -0	21.0987	-0	0 -19.2342 0 1.28777e-015	-4.05136e-015	125.267	0 -9.61712 0 1.22	4.38	-0	0 -3.29215 0 -0	7.12502	-0	0 -9.61712 0 25	15	-7.97034e-015	-8.46272 -9.62775 4.76248 -0.0897748	-30.7572	2.44228	1.00552e-005 -38.0331 0 -0	28.1249	-0	1.14428e-005 -43.2815 0 -2.53291	-68.157	-2.70734	0 -14.1868 -3.08763 -0	-31.4436	-0	9.10607 -9.62778 4.76249 -5.33371	19.3561	-0.915248	-1.01399e-005 -38.3535 0 -0	15.4052	-0	-1.12937e-005 -42.7176 0 -1.46365	-65.9634	-1.6197	0 -13.9965 -2.83857 -0	-38.2036	-0
-0.306002	96.6912	71.4548	2.56273	0.814926	3.50876	0 0 0 -3.64162	3.11127	-2.12322	-0.214371 12.3768 -1.12219 1.52707	0.331491	-2.91347	-0.00137213 12.3873 0.296195 3.76546	-1.12831	-1.45309	0.0883157 12.5016 0.82912 -5.87193	-14.5824	-1.44018	-1 10.1794 0.943522 4.12385	14.8388	-1.35213	0.667525 10.2797 -1.57149 2.09057	7.29381	-0.643122	0.0883157 12.5016 0.82912 -15	0	-0	20.61 4.45006 1.43784 13.3023	-6.32295	178.876	0 -30.3438 0 -0	44.6079	-0	0 -18.964 0 1.36424e-014	-2.30953e-015	-109.217	0 -9.48199 0 1.22245	4.37968	-2.58917e-014	0 -3.17138 0 -0	7.12502	-0	0 -9.48199 0 25	15	-1.36605e-015	0.0883157 12.5016 0.82912 15	0	-0	-20.61 4.45 1.44 -9.42977	12.3222	155.616	0 -29.5102 0 -0	20.9058	-0	0 -19.2342 0 1.31028e-015	-4.08299e-015	125.584	0 -9.61712 0 1.22	4.38	-0	0 -3.29215 0 -0	7.12502	-0	0 -9.61712 0 25	15	-7.97034e-015	-8.46272 -9.62775 4.76248 0.41754	-30.3518	2.4965	1.00552e-005 -38.0331 0 -0	28.678	-0	1.14428e-005 -43.2815 0 -2.40642	-67.6556	-2.57333	0 -14.1868 -3.08763 -0	-30.3602	-0	9.10607 -9.62778 4.76249 -4.87472	18.9043	-0.855284	-1.01399e-005 -38.3535 0 -0	17.2553	-0	-1.12937e-005 -42.7176 0 -1.42866	-64.4836	-1.60059	0 -13.9965 -2.83857 -0	-38.3303	-0
-0.39426	96.7599	72.5912	2.2598	0.769252	3.44162	0 0 0 -3.33006	3.07263	-2.11885	-0.214371 12.3768 -1.12219 1.63131	0.283389	-2.89268	-0.00137213 12.3873 0.296195 3.69703	-1.17026	-1.44311	0.0883157 12.5016 0.82912 -5.84301	-14.6531	-1.40922	-1 10.1794 0.943522 4.05357	14.9924	-1.30386	0.667525 10.2797 -1.57149 2.06953	7.35569	-0.624985	0.0883157 12.5016 0.82912 -15	0	-0	20.61 4.45006 1.43784 13.1309	-5.85344	179.21	0 -30.3438 0 -0	44.4662	-0	0 -18.964 0 1.36385e-014	-2.32074e-015	-109.314	0 -9.48199 0 1.22245	4.37968	-2.58917e-014	0 -3.17138 0 -0	7.12502	-0	0 -9.48199 0 25	15	-1.36605e-015	0.0883157 12.5016 0.82912 15	0	-0	-20.61 4.45 1.44 -9.48652	12.2578	155.138	0 -29.5102 0 -0	20.7485	-0	0 -19.2342 0 1.3303e-015	-4.11083e-015	125.864	0 -9.61712 0 1.22	4.38	-0	0 -3.29215 0 -0	7.12502	-0	0 -9.61712 0 25	15	-7.97034e-015	-8.46272 -9.62775 4.76248 0.926664	-29.9169	2.54044	1.00552e-005 -38.0331 0 -0	29.192	-0	1.14428e-005 -43.2815 0 -2.30135	-67.2781	-2.46031	0 -14.1868 -3.08763 -0	-29.2332	-0	9.10607 -9.62778 4.76249 -4.40124	18.2873	-0.767264	-1.01399e-005 -38.3535 0 -0	19.3368	-0	-1.12937e-005 -42.7176 0 -1.39087	-62.866	-1.5808	0 -13.9965 -2.83857 -0	-38.1802	-0
-0.480943	96.8327	73.7128	1.95182	0.722222	3.3732	0 0 0 -3.0103	3.04573	-2.10979	-0.214371 12.3768 -1.12219 1.7332	0.234326	-2.86562	-0.00137213 12.3873 0.296195 3.62156	-1.22076	-1.43006	0.0883157 12.5016 0.82912 -5.81618	-14.7128	-1.38177	-1 10.1794 0.943522 3.99209	15.1358	-1.26204	0.667525 10.2797 -1.57149 2.05068	7.41315	-0.609184	0.0883157 12.5016 0.82912 -15	0	-0	20.61 4.45006 1.43784 12.9562	-5.37508	179.527	0 -30.3438 0 -0	44.2994	-0	0 -18.964 0 1.36348e-014	-2.33137e-015	-109.406	0 -9.48199 0 1.22245	4.37968	-2.58917e-014	0 -3.17138 0 -0	7.12502	-0	0 -9.48199 0 25	15	-1.36605e-015	0.0883157 12.5016 0.82912 15	0	-0	-20.61 4.45 1.44 -9.5398	12.1829	154.698	0 -29.5102 0 -0	20.6275	-0	0 -19.2342 0 1.3475e-015	-4.13452e-015	126.103	0 -9.61712 0 1.22	4.38	-0	0 -3.29215 0 -0	7.12502	-0	0 -9.61712 0 25	15	-7.97034e-015	-8.46272 -9.62775 4.76248 1.43076	-29.4523	2.56505	1.00552e-005 -38.0331 0 -0	29.6649	-0	1.14428e-005 -43.2815 0 -2.2167	-67.0316	-2.3677	0 -14.1868 -3.08763 -0	-28.0957	-0	9.10607 -9.62778 4.76249 -3.91525	17.5148	-0.656424	-1.01399e-005 -38.3535 0 -0	21.6238	-0	-1.12937e-005 -42.7176 0 -1.35079	-61.122	-1.56089	0 -13.9965 -2.83857 -0	-37.7507	-0
-0.568255	96.9114	74.8157	1.64204	0.673524	3.30776	0 0 0 -2.68657	3.03188	-2.0966	-0.214371 12.3768 -1.12219 1.83215	0.186408	-2.83316	-0.00137213 12.3873 0.296195 3.54091	-1.27796	-1.41445	0.0883157 12.5016 0.82912 -5.793	-14.7619	-1.35899	-1 10.1794 0.943522 3.94204	15.2646	-1.22818	0.667525 10.2797 -1.57149 2.03495	7.46482	-0.596249	0.0883157 12.5016 0.82912 -15	0	-0	20.61 4.45006 1.43784 12.7809	-4.89681	179.819	0 -30.3438 0 -0	44.1082	-0	0 -18.964 0 1.36314e-014	-2.34096e-015	-109.489	0 -9.48199 0 1.22245	4.37968	-2.58917e-014	0 -3.17138 0 -0	7.12502	-0	0 -9.48199 0 25	15	-1.36605e-015	0.0883157 12.5016 0.82912 15	0	-0	-20.61 4.45 1.44 -9.58985	12.0949	154.306	0 -29.5102 0 -0	20.5424	-0	0 -19.2342 0 1.36153e-015	-4.15369e-015	126.297	0 -9.61712 0 1.22	4.38	-0	0 -3.29215 0 -0	7.12502	-0	0 -9.61712 0 25	15	-7.97034e-015	-8.46272 -9.62775 4.76248 1.92477	-28.9581	2.56395	1.00552e-005 -38.0331 0 -0	30.0947	-0	1.14428e-005 -43.2815 0 -2.15058	-66.9161	-2.29387	0 -14.1868 -3.08763 -0	-26.9802	-0	9.10607 -9.62778 4.76249 -3.41851	16.6007	-0.529219	-1.01399e-005 -38.3535 0 -0	24.083	-0	-1.12937e-005 -42.7176 0 -1.30894	-59.2712	-1.54131	0 -13.9965 -2.83857 -0	-37.0561	-0
-0.649189	96.9818	75.871	1.33296	0.62312	3.24926	0 0 0 -2.36264	3.03151	-2.07989	-0.214371 12.3768 -1.12219 1.92791	0.141689	-2.79617	-0.00137213 12.3873 0.296195 3.45698	-1.33959	-1.39675	0.0883157 12.5016 0.82912 -5.77483	-14.8012	-1.34184	-1 10.1794 0.943522 3.9056	15.3749	-1.20353	0.667525 10.2797 -1.57149 2.02307	7.5096	-0.586588	0.0883157 12.5016 0.82912 -15	0	-0	20.61 4.45006 1.43784 12.6076	-4.42721	-179.919	0 -30.3438 0 -0	43.8931	-0	0 -18.964 0 1.36287e-014	-2.34869e-015	-109.556	0 -9.48199 0 1.22245	4.37968	-2.58917e-014	0 -3.17138 0 -0	7.12502	-0	0 -9.48199 0 25	15	-1.36605e-015	0.0883157 12.5016 0.82912 15	0	-0	-20.61 4.45 1.44 -9.63732	11.9914	153.973	0 -29.5102 0 -0	20.4915	-0	0 -19.2342 0 1.3722e-015	-4.16818e-015	126.444	0 -9.61712 0 1.22	4.38	-0	0 -3.29215 0 -0	7.12502	-0	0 -9.61712 0 25	15	-7.97034e-015	-8.46272 -9.62775 4.76248 2.40548	-28.4344	2.53377	1.00552e-005 -38.0331 0 -0	30.4788	-0	1.14428e-005 -43.2815 0 -2.09865	-66.9247	-2.23665	0 -14.1868 -3.08763 -0	-25.9167	-0	9.10607 -9.62778 4.76249 -2.91295	15.5618	-0.3927	-1.01399e-005 -38.3535 0 -0	26.6768	-0	-1.12937e-005 -42.7176 0 -1.27058	-57.3427	-1.52251	0 -13.9965 -2.83857 -0	-36.1275	-0
-0.730863	97.0567	76.9109	1.02639	0.571235	3.20107	0 0 0 -2.04166	3.0442	-2.06015	-0.214371 12.3768 -1.12219 2.0204	0.102017	-2.75539	-0.00137213 12.3873 0.296195 3.37147	-1.40315	-1.37736	0.0883157 12.5016 0.82912 -5.76267	-14.8319	-1.3311	-1 10.1794 0.943522 3.88438	15.464	-1.18897	0.667525 10.2797 -1.57149 2.01561	7.54673	-0.58051	0.0883157 12.5016 0.82912 -15	0	-0	20.61 4.45006 1.43784 12.4387	-3.97406	-179.693	0 -30.3438 0 -0	43.6539	-0	0 -18.964 0 1.36267e-014	-2.35423e-015	-109.604	0 -9.48199 0 1.22245	4.37968	-2.58917e-014	0 -3.17138 0 -0	7.12502	-0	0 -9.48199 0 25	15	-1.36605e-015	0.0883157 12.5016 0.82912 15	0	-0	-20.61 4.45 1.44 -9.68305	11.8697	153.708	0 -29.5102 0 -0	20.4728	-0	0 -19.2342 0 1.37912e-015	-4.17754e-015	126.539	0 -9.61712 0 1.22	4.38	-0	0 -3.29215 0 -0	7.12502	-0	0 -9.61712 0 25	15	-7.97034e-015	-8.46272 -9.62775 4.76248 2.87136	-27.8815	2.47421	1.00552e-005 -38.0331 0 -0	30.8145	-0	1.14428e-005 -43.2815 0 -2.06133	-67.0454	-2.19368	0 -14.1868 -3.08763 -0	-24.9308	-0	9.10607 -9.62778 4.76249 -2.40087	14.4165	-0.253816	-1.01399e-005 -38.3535 0 -0	29.3656	-0	-1.12937e-005 -42.7176 0 -1.23351	-55.3754	-1.50494	0 -13.9965 -2.83857 -0	-35.0102	-0
-0.813374	97.1365	77.9351	0.723556	0.51831	3.16559	0 0 0 -1.72615	3.06882	-2.03767	-0.214371 12.3768 -1.12219 2.10965	0.0688892	-2.71119	-0.00137213 12.3873 0.296195 3.28579	-1.46617	-1.35649	0.0883157 12.5016 0.82912 -5.75718	-14.8554	-1.32738	-1 10.1794 0.943522 3.87938	15.5301	-1.18518	0.667525 10.2797 -1.57149 2.01304	7.57587	-0.579256	0.0883157 12.5016 0.82912 -15	0	-0	20.61 4.45006 1.43784 12.2763	-3.5441	-179.507	0 -30.3438 0 -0	43.39	-0	0 -18.964 0 1.36255e-014	-2.35757e-015	-109.633	0 -9.48199 0 1.22245	4.37968	-2.58917e-014	0 -3.17138 0 -0	7.12502	-0	0 -9.48199 0 25	15	-1.36605e-015	0.0883157 12.5016 0.82912 15	0	-0	-20.61 4.45 1.44 -9.72784	11.7276	153.521	0 -29.5102 0 -0	20.484	-0	0 -19.2342 0 1.38219e-015	-4.18167e-015	126.581	0 -9.61712 0 1.22	4.38	-0	0 -3.29215 0 -0	7.12502	-0	0 -9.61712 0 25	15	-7.97034e-015	-8.46272 -9.62775 4.76248 3.32222	-27.3	2.38773	1.00552e-005 -38.0331 0 -0	31.0989	-0	1.14428e-005 -43.2815 0 -2.03621	-67.2621	-2.16264	0 -14.1868 -3.08763 -0	-24.0422	-0	9.10607 -9.62778 4.76249 -1.88521	13.1835	-0.118714	-1.01399e-005 -38.3535 0 -0	32.1104	-0	-1.12937e-005 -42.7176 0 -1.19871	-53.4168	-1.48894	0 -13.9965 -2.83857 -0	-33.7601	-0
-0.896831	97.2211	78.9436	0.425312	0.464929	3.14398	0 0 0 -1.418	3.10378	-2.01242	-0.214371 12.3768 -1.12219 2.19561	0.0433559	-2.66358	-0.00137213 12.3873 0.296195 3.20089	-1.52648	-1.33415	0.0883157 12.5016 0.82912 -5.75852	-14.873	-1.33112	-1 10.1794 0.943522 3.89095	15.5732	-1.19258	0.667525 10.2797 -1.57149 2.01504	7.59714	-0.579999	0.0883157 12.5016 0.82912 -15	0	-0	20.61 4.45006 1.43784 12.122	-3.14277	-179.362	0 -30.3438 0 -0	43.1	-0	0 -18.964 0 1.36251e-014	-2.35873e-015	-109.643	0 -9.48199 0 1.22245	4.37968	-2.58917e-014	0 -3.17138 0 -0	7.12502	-0	0 -9.48199 0 25	15	-1.36605e-015	0.0883157 12.5016 0.82912 15	0	-0	-20.61 4.45 1.44 -9.77228	11.5632	153.419	0 -29.5102 0 -0	20.5227	-0	0 -19.2342 0 1.38124e-015	-4.18039e-015	126.568	0 -9.61712 0 1.22	4.38	-0	0 -3.29215 0 -0	7.12502	-0	0 -9.61712 0 25	15	-7.97034e-015	-8.46272 -9.62775 4.76248 3.75881	-26.6912	2.27906	1.00552e-005 -38.0331 0 -0	31.3295	-0	1.14428e-005 -43.2815 0 -2.02107	-67.5561	-2.14145	0 -14.1868 -3.08763 -0	-23.2642	-0	9.10607 -9.62778 4.76249 -1.36964	11.8803	0.00786163	-1.01399e-005 -38.3535 0 -0	34.8747	-0	-1.12937e-005 -42.7176 0 -1.16694	-51.5223	-1.47462	0 -13.9965 -2.83857 -0	-32.4391	-0
-0.98188	97.3144	79.9373	0.132329	0.411733	3.13601	0 0 0 -1.11863	3.1472	-1.98404	-0.214371 12.3768 -1.12219 2.2781	0.025964	-2.61207	-0.00137213 12.3873 0.296195 3.11724	-1.58236	-1.31007	0.0883157 12.5016 0.82912 -5.7665	-14.8863	-1.34259	-1 10.1794 0.943522 3.91885	15.5944	-1.21141	0.667525 10.2797 -1.57149 2.02188	7.61113	-0.585929	0.0883157 12.5016 0.82912 -15	0	-0	20.61 4.45006 1.43784 11.9771	-2.77395	-179.258	0 -30.3438 0 -0	42.7821	-0	0 -18.964 0 1.36252e-014	-2.35826e-015	-109.639	0 -9.48199 0 1.22245	4.37968	-2.58917e-014	0 -3.17138 0 -0	7.12502	-0	0 -9.48199 0 25	15	-1.36605e-015	0.0883157 12.5016 0.82912 15	0	-0	-20.61 4.45 1.44 -9.81663	11.3751	153.407	0 -29.5102 0 -0	20.5866	-0	0 -19.2342 0 1.37621e-015	-4.1736e-015	126.499	0 -9.61712 0 1.22	4.38	-0	0 -3.29215 0 -0	7.12502	-0	0 -9.61712 0 25	15	-7.97034e-015	-8.46272 -9.62775 4.76248 4.18236	-26.0567	2.1546	1.00552e-005 -38.0331 0 -0	31.5049	-0	1.14428e-005 -43.2815 0 -2.01397	-67.9084	-2.12829	0 -14.1868 -3.08763 -0	-22.6039	-0	9.10607 -9.62778 4.76249 -0.858517	10.5231	0.123014	-1.01399e-005 -38.3535 0 -0	37.6255	-0	-1.12937e-005 -42.7176 0 -1.13865	-49.752	-1.46156	0 -13.9965 -2.83857 -0	-31.1098	-0
